:version 1.10
:name ASF
:units
  mass 1
  length 1
  angle deg
:documentation
  ASF file generated by Kaydara
:root
  axis xyz
  order  tx ty tz rx ry rz
  position 0 0 0
  orientation 0 0 0
:bonedata
  begin
    id 1
    name RightUpLegDummy
    direction -0.65628 -0.754516 0.00165102
    length 4.76918
    axis 0 0 0 xyz
  end
  begin
    id 2
    name RightUpLeg
    direction -0.145584 -0.923362 0.355256
    length 17.9961
    axis -24.7611 -13.1006 1.78531 xyz
    dof rx ry rz
  end
  begin
    id 3
    name RightLeg
    direction 0.263379 0.172355 -0.949171
    length 13.3386
    axis 89.6202 -21.1929 12.3855 xyz
    dof rx ry rz
  end
  begin
    id 4
    name RightFoot
    direction 0.224283 -0.968777 -0.105675
    length 5.86697
    axis 56.995 -39.6905 17.3365 xyz
    dof rx ry rz
  end
  begin
    id 5
    name RightToes
    direction -0.0806345 -0.9037 0.420506
    length 4.75197
    axis 146.825 -39.7828 17.6019 xyz
    dof rx ry rz
  end
  begin
    id 6
    name SpineDummy
    direction -3.39852e-014 1 9.33296e-014
    length 8.13779
    axis 0 0 0 xyz
  end
  begin
    id 7
    name Spine
    direction -0.156609 0.733703 0.661176
    length 7.14978
    axis 41.2365 5.68757 17.0844 xyz
    dof rx ry rz
  end
  begin
    id 8
    name Spine1
    direction 0 0 0
    length 0
    axis 42.8809 47.8308 -3.36039 xyz
    dof rx ry rz
  end
  begin
    id 9
    name HEadDummy
    direction 0.546431 0.701947 0.456819
    length 3.55512
    axis 42.8809 47.8308 -3.36039 xyz
  end
  begin
    id 10
    name HEad
    direction 0.23444 0.828559 0.508457
    length 7.35827
    axis 51.1864 49.2662 27.4903 xyz
    dof rx ry rz
  end
  begin
    id 11
    name LeftShoulder1Dummy
    direction 0.431183 0.475873 -0.766568
    length 2.49352
    axis 42.8809 47.8308 -3.36039 xyz
  end
  begin
    id 12
    name LeftShoulder1
    direction 0.268187 -0.383402 -0.883786
    length 4.48604
    axis -119.517 0.106469 35.1736 xyz
    dof rx ry rz
  end
  begin
    id 13
    name LeftArm
    direction 0.380567 -0.703221 -0.600541
    length 10.1142
    axis -5.41825 36.2925 7.8293 xyz
    dof rx ry rz
  end
  begin
    id 14
    name LeftForeArm
    direction 0.541071 -0.732356 -0.413396
    length 9.39839
    axis 4.65387 33.7604 7.81644 xyz
    dof rx ry rz
  end
  begin
    id 15
    name LeftHand
    direction 0.847511 -0.389379 -0.360707
    length 3.66142
    axis 7.65593 21.1436 -24.6758 xyz
    dof rx ry rz
  end
  begin
    id 16
    name RightShoulderDummy
    direction -0.692546 0.541855 0.476208
    length 2.49352
    axis 42.8809 47.8308 -3.36039 xyz
  end
  begin
    id 17
    name RightShoulder
    direction -0.870808 -0.316653 0.376065
    length 4.48602
    axis 141.571 51.133 -100.254 xyz
    dof rx ry rz
  end
  begin
    id 18
    name RightArm
    direction 0.366897 -0.87275 0.322015
    length 10.1142
    axis 92.3258 71.2036 138.917 xyz
    dof rx ry rz
  end
  begin
    id 19
    name RightForeArm
    direction 0.702487 -0.694568 0.155197
    length 9.39835
    axis 153.863 41.5092 -176.604 xyz
    dof rx ry rz
  end
  begin
    id 20
    name RightHand
    direction 0.79502 -0.601276 0.0800636
    length 3.66142
    axis 154.247 4.59222 142.9 xyz
    dof rx ry rz
  end
  begin
    id 21
    name LeftUpLegDummy
    direction 0.65628 -0.754516 0.00165102
    length 4.76919
    axis 0 0 0 xyz
  end
  begin
    id 22
    name LeftUpLeg
    direction -0.1277 -0.689368 0.713067
    length 17.9961
    axis -48.3385 -17.8675 0.791927 xyz
    dof rx ry rz
  end
  begin
    id 23
    name LeftLeg
    direction 0.109849 -0.991246 -0.0732378
    length 13.3386
    axis -2.05791 -7.30784 1.72042 xyz
    dof rx ry rz
  end
  begin
    id 24
    name LeftFoot
    direction 0.0448355 -0.272614 0.961078
    length 5.86697
    axis -18.7733 -7.89606 10.2113 xyz
    dof rx ry rz
  end
  begin
    id 25
    name LeftToes
    direction -0.18506 0.293668 0.937823
    length 4.75197
    axis 71.2267 -7.89606 10.2113 xyz
    dof rx ry rz
  end
:hierarchy
  begin
    root RightUpLegDummy SpineDummy LeftUpLegDummy
    RightUpLegDummy RightUpLeg
    RightUpLeg RightLeg
    RightLeg RightFoot
    RightFoot RightToes
    SpineDummy Spine
    Spine Spine1
    Spine1 HEadDummy LeftShoulder1Dummy RightShoulderDummy
    HEadDummy HEad
    LeftShoulder1Dummy LeftShoulder1
    LeftShoulder1 LeftArm
    LeftArm LeftForeArm
    LeftForeArm LeftHand
    RightShoulderDummy RightShoulder
    RightShoulder RightArm
    RightArm RightForeArm
    RightForeArm RightHand
    LeftUpLegDummy LeftUpLeg
    LeftUpLeg LeftLeg
    LeftLeg LeftFoot
    LeftFoot LeftToes
  end

:SAMPLES-PER-SECOND 30
:FULLY-SPECIFIED
:DEGREES
85
root  -15.3754 35.3788 19.252 -178.081 10.5155 178.659
RightUpLeg  -11.3521 17.6818 -3.29726
RightLeg  -47.3408 -24.8662 6.77168
RightFoot  23.4096 -0.160097 -9.22401
RightToes  -1.27222e-014 -6.36111e-015 6.36111e-015
Spine  -24.7111 -21.4014 -18.0363
Spine1  -1.34101 -14.46 42.4586
HEad  -23.7769 -7.2913 -7.99474
LeftShoulder1  6.36111e-015 -1.33558e-015 6.49777e-015
LeftArm  30.0199 -27.8512 -64.4924
LeftForeArm  -16.1954 -36.8871 6.52805
LeftHand  -1.61376 -2.35356 -11.7295
RightShoulder  -4.77083e-015 -6.36111e-015 -3.18055e-015
RightArm  41.2481 -38.303 -9.15114
RightForeArm  -24.8701 -2.49336 -13.8743
RightHand  0.655607 2.48766 -9.95446
LeftUpLeg  40.0258 28.4403 10.8475
LeftLeg  6.19244 7.84091 2.56366
LeftFoot  -27.6916 0.510287 -8.71207
LeftToes  9.54166e-015 -1.91609e-011 -2.3878e-011
86
root  -15.4113 36.6387 18.7294 -177.787 5.96652 178.239
RightUpLeg  -9.74165 17.2447 -0.487706
RightLeg  -51.655 -27.6067 10.6768
RightFoot  25.4797 1.98314 -12.7422
RightToes  -1.27222e-014 -6.36111e-015 6.36111e-015
Spine  -26.9939 -21.7782 -17.6194
Spine1  -1.80677 -14.8196 44.1572
HEad  -19.0472 -9.18434 -9.47685
LeftShoulder1  6.36111e-015 -1.33558e-015 6.49777e-015
LeftArm  32.6335 -19.9664 -64.9136
LeftForeArm  -9.73678 -28.1824 1.61096
LeftHand  -0.817217 0.0669638 -10.1886
RightShoulder  -4.77083e-015 -6.36111e-015 -3.18055e-015
RightArm  45.6856 -40.7252 -10.3735
RightForeArm  -20.8622 -11.0564 -8.63658
RightHand  1.20812 1.4508 -12.2522
LeftUpLeg  42.2365 27.3472 11.6684
LeftLeg  0.874127 2.59227 0.380433
LeftFoot  -19.2698 0.963541 -7.34078
LeftToes  9.54166e-015 -1.91609e-011 -2.3878e-011
87
root  -15.3763 38.0818 17.9888 -176.479 0.478836 177.048
RightUpLeg  -7.49166 16.0536 2.27109
RightLeg  -57.018 -25.3776 11.0228
RightFoot  21.8598 3.49372 -14.1555
RightToes  -1.27222e-014 -6.36111e-015 6.36111e-015
Spine  -29.5872 -23.269 -18.908
Spine1  -3.09004 -15.0358 47.7931
HEad  -14.4367 -11.5514 -10.5779
LeftShoulder1  6.36111e-015 -1.33558e-015 6.49777e-015
LeftArm  34.7706 -12.2229 -63.1445
LeftForeArm  -6.97952 -18.1374 -0.946196
LeftHand  -0.511111 1.14816 -10.292
RightShoulder  -4.77083e-015 -6.36111e-015 -3.18055e-015
RightArm  55.829 -43.9119 -20.2079
RightForeArm  -18.8853 -15.1354 -6.66511
RightHand  0.949703 2.15726 -11.7594
LeftUpLeg  43.3743 27.1254 14.2692
LeftLeg  -3.08754 -6.86552 -0.980569
LeftFoot  -6.73306 1.66093 -6.95713
LeftToes  9.54166e-015 -1.91609e-011 -2.3878e-011
88
root  -15.4389 39.3422 17.2771 -175.228 -4.82692 175.428
RightUpLeg  -6.01441 14.9011 4.16413
RightLeg  -61.7505 -19.97 6.81499
RightFoot  21.8891 2.46535 -12.6383
RightToes  -1.27222e-014 -6.36111e-015 6.36111e-015
Spine  -31.9519 -24.6091 -19.2766
Spine1  -4.07823 -15.5111 49.5321
HEad  -11.091 -13.5693 -11.5131
LeftShoulder1  6.36111e-015 -1.33558e-015 6.49777e-015
LeftArm  31.6081 -1.34429 -50.8251
LeftForeArm  -1.55264 -17.7815 -4.50811
LeftHand  -0.674171 1.06931 -11.8576
RightShoulder  -4.77083e-015 -6.36111e-015 -3.18055e-015
RightArm  68.4834 -44.7366 -35.8768
RightForeArm  -17.3629 -16.2651 -6.07844
RightHand  0.578712 2.82593 -10.0719
LeftUpLeg  43.0914 27.475 15.901
LeftLeg  -5.38315 -14.5133 -1.1646
LeftFoot  6.98746 2.83238 -7.8155
LeftToes  9.54166e-015 -1.91609e-011 -2.3878e-011
89
root  -15.626 40.3332 16.6938 -174.92 -9.76575 174.173
RightUpLeg  -4.08379 14.192 5.98077
RightLeg  -67.9854 -15.0202 1.30848
RightFoot  25.8655 0.519093 -10.8249
RightToes  -1.27222e-014 -6.36111e-015 6.36111e-015
Spine  -33.5348 -24.6302 -17.644
Spine1  -5.1873 -15.9701 49.8136
HEad  -8.25719 -14.9272 -13.2238
LeftShoulder1  6.36111e-015 -1.33558e-015 6.49777e-015
LeftArm  33.8734 5.81792 -38.3016
LeftForeArm  -1.26648 -17.2324 -4.65392
LeftHand  -0.879886 0.496293 -12.4252
RightShoulder  -4.77083e-015 -6.36111e-015 -3.18055e-015
RightArm  78.9585 -41.4453 -50.3806
RightForeArm  -17.0158 -18.1737 -5.13895
RightHand  0.572 2.39736 -8.99091
LeftUpLeg  42.65 27.359 15.877
LeftLeg  -7.00646 -17.0293 -0.94973
LeftFoot  18.6279 4.87937 -10.1992
LeftToes  9.54166e-015 -1.91609e-011 -2.3878e-011
90
root  -15.8376 40.9292 16.2232 -175.382 -14.1779 173.221
RightUpLeg  -1.69973 14.2167 8.05125
RightLeg  -75.4969 -12.4551 -2.73285
RightFoot  28.9773 -0.110469 -10.7685
RightToes  -1.27222e-014 -6.36111e-015 6.36111e-015
Spine  -33.7903 -23.9241 -15.8011
Spine1  -6.74412 -16.0372 50.2555
HEad  -5.80591 -16.0599 -15.5053
LeftShoulder1  6.36111e-015 -1.33558e-015 6.49777e-015
LeftArm  39.1188 7.70212 -27.9533
LeftForeArm  -4.66863 -14.3921 -3.25355
LeftHand  -1.11802 -0.591517 -11.6539
RightShoulder  -4.77083e-015 -6.36111e-015 -3.18055e-015
RightArm  85.0561 -34.5572 -62.1098
RightForeArm  -17.0421 -20.492 -3.33759
RightHand  0.701732 1.72223 -8.62692
LeftUpLeg  42.6034 27.8063 16.7934
LeftLeg  -6.1739 -16.027 -1.11465
LeftFoot  26.4408 7.60468 -13.4596
LeftToes  9.54166e-015 -1.91609e-011 -2.3878e-011
91
root  -16.0456 41.0624 15.8502 -176.023 -18.1368 172.455
RightUpLeg  -0.540575 13.8666 9.65118
RightLeg  -82.1079 -11.6064 -4.83171
RightFoot  30.889 -1.67523 -9.29396
RightToes  -1.27222e-014 -6.36111e-015 6.36111e-015
Spine  -33.753 -22.901 -14.0745
Spine1  -7.50662 -15.8935 50.5065
HEad  -4.684 -17.6151 -17.1742
LeftShoulder1  6.36111e-015 -1.33558e-015 6.49777e-015
LeftArm  43.0488 5.7814 -18.6593
LeftForeArm  -7.08278 -12.6021 -2.51069
LeftHand  -1.37573 -1.63434 -11.1394
RightShoulder  -4.77083e-015 -6.36111e-015 -3.18055e-015
RightArm  87.0902 -26.1742 -70.3642
RightForeArm  -16.9334 -22.736 -1.90917
RightHand  0.727423 1.43314 -8.234
LeftUpLeg  42.3645 28.9524 18.9004
LeftLeg  -1.84757 -14.2909 -1.66266
LeftFoot  29.6206 9.60574 -15.9271
LeftToes  9.54166e-015 -1.91609e-011 -2.3878e-011
92
root  -16.2709 40.7546 15.5435 -176.802 -22.2453 172.076
RightUpLeg  -1.29688 10.535 10.091
RightLeg  -86.821 -11.4 -5.73036
RightFoot  34.062 -6.65174 -4.36624
RightToes  -1.27222e-014 -6.36111e-015 6.36111e-015
Spine  -34.3967 -21.427 -11.6605
Spine1  -6.58463 -15.8596 50.2787
HEad  -4.96072 -19.8501 -17.8925
LeftShoulder1  6.36111e-015 -1.33558e-015 6.49777e-015
LeftArm  44.7374 0.906774 -10.9455
LeftForeArm  -7.3509 -13.0464 -2.14915
LeftHand  -1.476 -1.97235 -11.2103
RightShoulder  -4.77083e-015 -6.36111e-015 -3.18055e-015
RightArm  87.3243 -18.1317 -75.0285
RightForeArm  -16.8144 -24.4929 -1.53406
RightHand  0.623547 1.46293 -7.42525
LeftUpLeg  41.4406 29.2835 20.0322
LeftLeg  4.54268 -13.7222 -2.39935
LeftFoot  29.0421 10.2193 -17.1128
LeftToes  9.54166e-015 -1.91609e-011 -2.3878e-011
93
root  -16.5047 39.9968 15.2141 -177.896 -26.737 171.608
RightUpLeg  -2.93212 3.287 9.57223
RightLeg  -88.9618 -11.4198 -5.65501
RightFoot  37.7614 -9.07327 -3.02358
RightToes  -1.27222e-014 -6.36111e-015 6.36111e-015
Spine  -34.6797 -20.6434 -9.96851
Spine1  -5.52082 -16.0967 50.1833
HEad  -5.26474 -22.3887 -18.3764
LeftShoulder1  6.36111e-015 -1.33558e-015 6.49777e-015
LeftArm  44.0544 -5.29058 -4.12384
LeftForeArm  -5.74707 -14.6729 -2.21463
LeftHand  -1.47114 -1.96809 -11.1505
RightShoulder  -4.77083e-015 -6.36111e-015 -3.18055e-015
RightArm  87.6642 -10.2835 -77.362
RightForeArm  -16.8699 -24.8771 -1.98282
RightHand  0.362922 1.93623 -6.14465
LeftUpLeg  40.4218 28.7907 19.8049
LeftLeg  11.1697 -13.3516 -3.1717
LeftFoot  27.2327 10.2104 -17.7035
LeftToes  9.54166e-015 -1.91609e-011 -2.3878e-011
94
root  -16.7363 38.7553 14.8718 -179.674 -31.0237 171.052
RightUpLeg  -4.53161 -3.73309 9.5553
RightLeg  -86.4752 -11.7906 -3.73794
RightFoot  37.3716 -0.895097 -11.8037
RightToes  -1.27222e-014 -6.36111e-015 6.36111e-015
Spine  -33.3415 -20.3575 -9.06098
Spine1  -5.77849 -16.3273 50.1996
HEad  -4.93719 -24.6472 -18.8532
LeftShoulder1  6.36111e-015 -1.33558e-015 6.49777e-015
LeftArm  40.5567 -11.403 3.54139
LeftForeArm  -3.48721 -15.908 -2.83225
LeftHand  -1.44744 -1.89275 -11.1129
RightShoulder  -4.77083e-015 -6.36111e-015 -3.18055e-015
RightArm  88.5086 -2.28754 -78.6625
RightForeArm  -17.4129 -23.8536 -2.91364
RightHand  0.121186 2.54518 -5.20473
LeftUpLeg  40.0651 28.2085 19.8604
LeftLeg  18.201 -10.9109 -3.08134
LeftFoot  25.1696 9.98673 -18.0377
LeftToes  9.54166e-015 -1.91609e-011 -2.3878e-011
95
root  -16.9913 37.1051 14.5584 177.528 -34.1695 170.539
RightUpLeg  -5.79008 -6.80312 10.3257
RightLeg  -80.4796 -14.3707 3.84116
RightFoot  29.6321 13.5179 -28.7046
RightToes  -1.27222e-014 -6.36111e-015 6.36111e-015
Spine  -31.0404 -19.9447 -8.20298
Spine1  -5.65703 -16.6025 48.2962
HEad  -5.40156 -26.5985 -18.5303
LeftShoulder1  6.36111e-015 -1.33558e-015 6.49777e-015
LeftArm  34.4552 -17.3547 12.1754
LeftForeArm  -1.01248 -17.2414 -3.57088
LeftHand  -1.22918 -1.12661 -11.1028
RightShoulder  -4.77083e-015 -6.36111e-015 -3.18055e-015
RightArm  89.6484 4.83818 -78.7677
RightForeArm  -18.5356 -22.9278 -3.59742
RightHand  0.23106 2.44247 -6.00178
LeftUpLeg  41.3443 28.0687 21.3039
LeftLeg  26.3606 -7.13758 -1.6178
LeftFoot  21.6336 8.91178 -17.3252
LeftToes  9.54166e-015 -1.91609e-011 -2.3878e-011
96
root  -17.2737 35.4061 14.2862 174.079 -35.9023 170.207
RightUpLeg  -6.37011 -7.04228 10.8244
RightLeg  -74.032 -20.0752 13.0081
RightFoot  18.3117 20.1055 -40.5892
RightToes  -1.27222e-014 -6.36111e-015 6.36111e-015
Spine  -29.917 -19.1244 -7.13107
Spine1  -2.69823 -16.8729 44.0349
HEad  -7.82618 -28.8532 -16.9516
LeftShoulder1  6.36111e-015 -1.33558e-015 6.49777e-015
LeftArm  27.2177 -23.3942 19.8758
LeftForeArm  2.77078 -20.5915 -4.56377
LeftHand  -0.678712 0.570729 -10.2888
RightShoulder  -4.77083e-015 -6.36111e-015 -3.18055e-015
RightArm  91.4182 9.20732 -76.8279
RightForeArm  -19.8839 -23.6663 -3.39885
RightHand  0.675447 1.56515 -8.07189
LeftUpLeg  44.8172 28.1164 23.9215
LeftLeg  34.3133 -4.54555 0.221991
LeftFoot  16.0204 6.87606 -15.1423
LeftToes  9.54166e-015 -1.91609e-011 -2.3878e-011
